<svg xmlns="http://www.w3.org/2000/svg" width="48" height="48" viewBox="0 0 48 48" fill="none" role="img" aria-label="SoyContratoFacil">
  <rect x="0.5" y="0.5" width="47" height="47" rx="12" fill="#1e293b" stroke="#334155"/>
  <g
    transform="translate(12, 12)"
    stroke="#3b82f6"
    stroke-width="2"
    stroke-linecap="round"
    stroke-linejoin="round"
    fill="none"
  >
    <path d="M6 22a2 2 0 0 1-2-2V4a2 2 0 0 1 2-2h8a2.4 2.4 0 0 1 1.704.706l3.588 3.588A2.4 2.4 0 0 1 20 8v12a2 2 0 0 1-2 2z"/>
    <path d="M14 2v5a1 1 0 0 0 1 1h5"/>
    <path d="M10 9H8"/>
    <path d="M16 13H8"/>
    <path d="M16 17H8"/>
  </g>
</svg>
